<svg width="1440" height="1024" viewBox="0 0 1440 1024" fill="none" xmlns="http://www.w3.org/2000/svg">
<path d="M1100 103.618L1136.99 64.7657L1173.98 103.618L1210.97 64.7657L1247.96 103.618L1284.95 64.7657L1321.94 103.618L1358.93 64.7657L1397.86 106.531" stroke="black" stroke-opacity="0.62" stroke-width="20"/>
<path d="M1100 38.8518L1136.99 0L1173.98 38.8518L1210.97 0L1247.96 38.8518L1284.95 0L1321.94 38.8518L1358.93 0L1397.86 41.7657" stroke="black" stroke-opacity="0.62" stroke-width="20"/>
<path d="M1100 168.383L1136.99 129.531L1173.98 168.383L1210.97 129.531L1247.96 168.383L1284.95 129.531L1321.94 168.383L1358.93 129.531L1397.86 171.297" stroke="black" stroke-opacity="0.62" stroke-width="20"/>
<path d="M1100 233.149L1136.99 194.297L1173.98 233.149L1210.97 194.297L1247.96 233.149L1284.95 194.297L1321.94 233.149L1358.93 194.297L1397.86 236.063" stroke="black" stroke-opacity="0.62" stroke-width="20"/>
<path d="M1100 297.915L1136.99 259.063L1173.98 297.915L1210.97 259.063L1247.96 297.915L1284.95 259.063L1321.94 297.915L1358.93 259.063L1397.86 300.829" stroke="black" stroke-opacity="0.62" stroke-width="20"/>
<path d="M1100 362.681L1136.99 323.829L1173.98 362.681L1210.97 323.829L1247.96 362.681L1284.95 323.829L1321.94 362.681L1358.93 323.829L1397.86 365.594" stroke="black" stroke-opacity="0.62" stroke-width="20"/>
<path d="M1100 427.446L1136.99 388.594L1173.98 427.446L1210.97 388.594L1247.96 427.446L1284.95 388.594L1321.94 427.446L1358.93 388.594L1397.86 430.36" stroke="black" stroke-opacity="0.62" stroke-width="20"/>
<path d="M1100 492.212L1136.99 453.36L1173.98 492.212L1210.97 453.36L1247.96 492.212L1284.95 453.36L1321.94 492.212L1358.93 453.36L1397.86 495.126" stroke="black" stroke-opacity="0.62" stroke-width="20"/>
<path d="M1100 556.978L1136.99 518.126L1173.98 556.978L1210.97 518.126L1247.96 556.978L1284.95 518.126L1321.94 556.978L1358.93 518.126L1397.86 559.892" stroke="black" stroke-opacity="0.62" stroke-width="20"/>
<path d="M1100 621.744L1136.99 582.892L1173.98 621.744L1210.97 582.892L1247.96 621.744L1284.95 582.892L1321.94 621.744L1358.93 582.892L1397.86 624.657" stroke="black" stroke-opacity="0.62" stroke-width="20"/>
<path d="M1100 686.509L1136.99 647.657L1173.98 686.509L1210.97 647.657L1247.96 686.509L1284.95 647.657L1321.94 686.509L1358.93 647.657L1397.86 689.423" stroke="black" stroke-opacity="0.62" stroke-width="20"/>
<path d="M1100 751.275L1136.99 712.423L1173.98 751.275L1210.97 712.423L1247.96 751.275L1284.95 712.423L1321.94 751.275L1358.93 712.423L1397.86 754.189" stroke="black" stroke-opacity="0.62" stroke-width="20"/>
<path d="M1100 816.041L1136.99 777.189L1173.98 816.041L1210.97 777.189L1247.96 816.041L1284.95 777.189L1321.94 816.041L1358.93 777.189L1397.86 818.955" stroke="black" stroke-opacity="0.62" stroke-width="20"/>
<path d="M1100 880.807L1136.99 841.955L1173.98 880.807L1210.97 841.955L1247.96 880.807L1284.95 841.955L1321.94 880.807L1358.93 841.955L1397.86 883.72" stroke="black" stroke-opacity="0.62" stroke-width="20"/>
<path d="M1100 945.572L1136.99 906.72L1173.98 945.572L1210.97 906.72L1247.96 945.572L1284.95 906.72L1321.94 945.572L1358.93 906.72L1397.86 948.486" stroke="black" stroke-opacity="0.62" stroke-width="20"/>
<path d="M1100 1010.34L1136.99 971.486L1173.98 1010.34L1210.97 971.486L1247.96 1010.34L1284.95 971.486L1321.94 1010.34L1358.93 971.486L1397.86 1013.25" stroke="black" stroke-opacity="0.62" stroke-width="20"/>
<path d="M1100 1075.1L1136.99 1036.25L1173.98 1075.1L1210.97 1036.25L1247.96 1075.1L1284.95 1036.25L1321.94 1075.1L1358.93 1036.25L1397.86 1078.02" stroke="black" stroke-opacity="0.62" stroke-width="20"/>
<rect width="1440" height="1024" fill="url(#paint0_linear_153_4)" fill-opacity="0.56"/>
<defs>
<linearGradient id="paint0_linear_153_4" x1="702.5" y1="439.5" x2="720.788" y2="959.356" gradientUnits="userSpaceOnUse">
<stop stop-color="white" stop-opacity="0"/>
<stop offset="1" stop-color="#D9D9D9"/>
</linearGradient>
</defs>
</svg>
